<?xml version="1.0" encoding="utf-8"?>
<!-- Generator: Adobe Illustrator 22.0.1, SVG Export Plug-In . SVG Version: 6.00 Build 0)  -->
<svg version="1.1" id="Layer_1" xmlns="http://www.w3.org/2000/svg" xmlns:xlink="http://www.w3.org/1999/xlink" x="0px" y="0px"
	 viewBox="0 0 236.5 78.6" style="enable-background:new 0 0 236.5 78.6;" xml:space="preserve">
<style type="text/css">
	.st0{fill:#FFFFFF;}
</style>
<path class="st0" d="M63.6,64.9v-1.5l1.8-0.1L74,40.6h1.9l8.6,22.8l1.8,0.1v1.5h-6v-1.5l2.1-0.2l-2-5.5H69.5l-2,5.5l2.1,0.2v1.5
	H63.6z M70.1,56h9.6l-4.4-11.9l-0.3-1h-0.1l-0.3,1L70.1,56z"/>
<path class="st0" d="M90.7,64.9v-1.5l2.7-0.2v-21h-6.8l-0.2,3.7h-1.6v-5.4h19.4v5.3h-1.6l-0.2-3.7h-6.8v21l2.7,0.2v1.5H90.7z"/>
<path class="st0" d="M107.2,64.9v-1.5l2.7-0.2v-21l-2.7-0.2v-1.4h7.5V42l-2.7,0.2v21h10.2l0.2-3.9h1.6v5.6H107.2z"/>
<path class="st0" d="M127,64.9v-1.5l1.8-0.1l8.6-22.8h1.9l8.6,22.8l1.8,0.1v1.5h-6v-1.5l2.1-0.2l-2-5.5h-10.9l-2,5.5l2.1,0.2v1.5
	H127z M133.5,56h9.6l-4.4-11.9l-0.3-1h-0.1l-0.4,1L133.5,56z"/>
<path class="st0" d="M152.9,64.9v-1.5l2.7-0.2v-21l-2.7-0.2v-1.4h4.8l13.9,20.9h0.1V42.3l-2.8-0.3v-1.4h7.4V42l-2.7,0.2v22.7h-1.9
	l-14-21h-0.1v19.3l2.8,0.2v1.5H152.9z"/>
<path class="st0" d="M185,64.9v-1.5l2.7-0.2v-21h-6.8l-0.2,3.7H179v-5.4h19.4v5.3h-1.6l-0.2-3.7h-6.8v21l2.7,0.2v1.5H185z"/>
<path class="st0" d="M201.2,64.9v-1.5l2.7-0.2v-21l-2.7-0.2v-1.4h7.4V42l-2.7,0.2v21l2.7,0.2v1.5H201.2z"/>
<path class="st0" d="M219.9,65.2c-2.9,0-5.8-0.9-8.2-2.6v-4.7h1.7l0.2,3.8c1,0.6,2,1.1,3.1,1.4c1,0.3,2.1,0.4,3.2,0.5
	c1.1,0,2.3-0.2,3.4-0.6c0.9-0.3,1.6-0.9,2.2-1.7c0.5-0.7,0.8-1.6,0.8-2.5c0-0.8-0.2-1.6-0.6-2.3c-0.5-0.8-1.3-1.4-2.1-1.8
	c-1.2-0.6-2.6-1.1-3.9-1.4c-1.5-0.4-3-0.9-4.3-1.6c-1-0.5-1.9-1.3-2.5-2.2c-0.6-0.9-0.8-2-0.8-3.1c0-1.2,0.3-2.3,1-3.2
	c0.7-1,1.6-1.7,2.7-2.2c1.3-0.6,2.7-0.8,4.1-0.8c1.5,0,3,0.2,4.4,0.7c1.2,0.4,2.3,1.1,3.3,1.9v4.3h-1.7l-0.2-3.4
	c-0.7-0.6-1.6-1-2.5-1.3c-1.1-0.3-2.2-0.5-3.3-0.5c-1.1,0-2.1,0.2-3.1,0.6c-0.8,0.3-1.5,0.9-2,1.6c-0.5,0.7-0.7,1.5-0.7,2.3
	c0,0.8,0.2,1.5,0.6,2.1c0.5,0.7,1.1,1.3,1.9,1.6c1.2,0.6,2.5,1,3.8,1.4c2.2,0.5,4.2,1.4,6,2.8c1.3,1.1,2.1,2.8,2,4.5
	c0,1.2-0.3,2.4-1.1,3.4c-0.8,1-1.8,1.8-2.9,2.2C222.8,65,221.3,65.3,219.9,65.2z"/>
<path class="st0" d="M59.4,49.6v-2.2H55v2.2l0,0L59.4,49.6z"/>
<rect x="8.7" y="47.4" class="st0" width="4.4" height="2.2"/>
<rect x="8.7" y="43" class="st0" width="4.4" height="2.2"/>
<path class="st0" d="M39.7,48.8l-0.2-0.1c-1.3-0.5-2.4-1.3-3.4-2.2L34,44.3l-2.2,2.2c-1,1-2.1,1.7-3.4,2.2h-0.1"/>
<rect x="55" y="43" class="st0" width="4.4" height="2.2"/>
<path class="st0" d="M24.1,46.5c0.8-0.8,1.7-1.4,2.7-1.8c0.7-0.3,1.4-0.7,1.9-1.2l5.3-5.3l5.3,5.3c0.5,0.5,1.2,1,1.9,1.2
	c1,0.4,2,1,2.7,1.8V36.3H24.1V46.5z"/>
<rect x="32.9" y="29.7" class="st0" width="2.2" height="4.4"/>
<rect x="43.9" y="18.7" class="st0" width="8.8" height="2.2"/>
<polygon class="st0" points="34,18.7 30.7,23.1 37.3,23.1 "/>
<rect x="28.5" y="29.7" class="st0" width="2.2" height="4.4"/>
<rect x="31.8" y="25.3" class="st0" width="4.4" height="2.2"/>
<path class="st0" d="M50.5,47.4v-6.6h-2.2v-2.2h2.2v-6.6h-2.2v-2.2h2.2v-6.6h-4.4v2.2h2.2v2.2h-2.2v6.6h2.2v2.2h-2.2V43h2.2v2.2
	h-2.2v1.7c0.2,0,0.5,0,0.7,0C48.1,46.9,49.3,47.1,50.5,47.4z"/>
<rect x="41.7" y="29.7" class="st0" width="2.2" height="4.4"/>
<path class="st0" d="M28.5,48.8c1.3-0.5,2.4-1.3,3.4-2.2l2.2-2.2l2.2,2.2c1,1,2.1,1.7,3.4,2.2l0.2,0.1c0.7-0.4,1.5-0.8,2.3-1.1
	c-0.5-0.4-1-0.8-1.6-1c-1-0.4-1.9-1-2.6-1.7L34,41.2L30.3,45c-0.7,0.8-1.6,1.3-2.6,1.7c-0.6,0.2-1.1,0.6-1.6,1
	C26.8,48,27.6,48.4,28.5,48.8L28.5,48.8z"/>
<rect x="24.1" y="29.7" class="st0" width="2.2" height="4.4"/>
<rect x="37.3" y="29.7" class="st0" width="2.2" height="4.4"/>
<rect x="52.8" y="36.3" class="st0" width="11" height="2.2"/>
<path class="st0" d="M52.8,48.2c0.8,0.4,1.5,0.8,2.2,1.3v-2.2h4.4v2.2H55c4.8,3.5,6.7,9.8,4.8,15.4h1.8V40.8h-8.8V48.2z M55,43h4.4
	v2.2H55V43z"/>
<path class="st0" d="M15.3,48.3v-7.5H6.5V65h1.9c-0.5-1.4-0.7-2.9-0.8-4.4C7.6,55.3,10.6,50.6,15.3,48.3z M8.7,43h4.4v2.2H8.7V43z
	 M8.7,47.4h4.4v2.2H8.7V47.4z"/>
<polygon class="st0" points="19.7,5.5 16.4,9.9 22.8,9.9 "/>
<polygon class="st0" points="48.3,5.5 45,9.9 51.7,9.9 "/>
<rect x="46.1" y="12.1" class="st0" width="4.4" height="4.4"/>
<rect x="17.5" y="12.1" class="st0" width="4.4" height="4.4"/>
<rect x="15.3" y="18.7" class="st0" width="8.8" height="2.2"/>
<path class="st0" d="M21.9,46.9v-1.7h-2.2V43h2.2v-6.7h-2.2v-2.2h2.2v-6.6h-2.2v-2.2h2.2v-2.2h-4.4v6.6h2.2v2.2h-2.2v6.6h2.2v2.2
	h-2.2v6.7c1.3-0.4,2.6-0.6,3.9-0.6L21.9,46.9z"/>
<rect x="4.2" y="36.3" class="st0" width="11" height="2.2"/>
<path class="st0" d="M9.5,72.5h218.1v-1.8H47c-5.6,0-10.1-4.5-10.1-10.1S41.4,50.5,47,50.5c5.6,0,10.1,4.5,10.1,10.1
	c0,2.4-0.8,4.7-2.3,6.5h-2.6c3.5-2.8,4.1-8,1.3-11.6s-8-4.1-11.6-1.3s-4.1,8-1.3,11.6c1.6,1.9,3.9,3.1,6.4,3.1h180.6V67H57
	c3.6-5.5,2-12.9-3.5-16.5s-12.9-2-16.5,3.5c-2.5,3.9-2.5,9,0,12.9h-5.6c3.6-5.5,2-12.9-3.5-16.5s-12.9-2-16.5,3.5
	c-2.5,3.9-2.5,9,0,12.9H6.5v1.8h6.3c0.7,0.7,1.4,1.3,2.2,1.8H6.5v1.8L9.5,72.5L9.5,72.5z M47,67c-3.5,0-6.4-2.9-6.4-6.4
	c0-3.5,2.9-6.4,6.4-6.4c3.5,0,6.4,2.9,6.4,6.4c0,0,0,0,0,0C53.4,64.1,50.5,67,47,67z M11.3,60.6c0-5.6,4.5-10.1,10-10.1
	s10.1,4.5,10.1,10c0,2.4-0.8,4.7-2.3,6.5h-2.6c3.5-2.9,4.1-8,1.2-11.6s-8-4.1-11.6-1.2s-4.1,8-1.2,11.6c1.6,1.9,3.9,3.1,6.4,3h17
	c0.7,0.7,1.4,1.3,2.2,1.8H21.4C15.8,70.7,11.3,66.1,11.3,60.6C11.3,60.6,11.3,60.6,11.3,60.6L11.3,60.6z M21.4,67
	c-3.5,0-6.4-2.9-6.4-6.4c0-3.5,2.9-6.4,6.4-6.4s6.4,2.9,6.4,6.4c0,0,0,0,0,0C27.8,64.1,24.9,67,21.4,67z"/>
</svg>
