<svg id="Layer_1" data-name="Layer 1" xmlns="http://www.w3.org/2000/svg" viewBox="0 0 236.54 96.54"><defs><style>.cls-1{fill:#00427e;}.cls-2{fill:none;}.cls-3{fill:#29abc7;}.cls-4{fill:#fff;}</style></defs><path class="cls-1" d="M63.6,64.9V63.45l1.79-.12L74,40.57h1.9L84.5,63.33l1.79.12V64.9h-6V63.45l2.14-.15-2-5.5H69.5l-2,5.5,2.14.15V64.9ZM70.15,56h9.61L75.36,44.1l-.33-1h-.1l-.35,1Z"/><path class="cls-1" d="M90.69,64.9V63.45l2.73-.22v-21H86.58l-.22,3.71H84.73V40.57h19.36v5.35h-1.62l-.23-3.71H95.42v21l2.72.22V64.9Z"/><path class="cls-1" d="M107.29,64.9V63.45l2.72-.22v-21L107.29,42V40.57h7.45V42l-2.72.22v21h10.21l.18-3.93h1.64V64.9Z"/><path class="cls-1" d="M127,64.9V63.45l1.79-.12,8.64-22.76h1.9l8.58,22.76,1.78.12V64.9h-6V63.45l2.14-.15-2-5.5H132.92l-2,5.5,2.14.15V64.9ZM133.57,56h9.61l-4.4-11.94-.33-1h-.1l-.35,1Z"/><path class="cls-1" d="M153,64.9V63.45l2.72-.22v-21L153,42V40.57h4.74l13.9,20.92.1,0V42.26L168.85,42V40.57h7.46V42l-2.73.22V64.9h-1.87l-14.05-21-.1,0v19.3l2.84.22V64.9Z"/><path class="cls-1" d="M185,64.9V63.45l2.72-.22v-21H180.9l-.22,3.71h-1.63V40.57h19.36v5.35h-1.62l-.23-3.71h-6.82v21l2.72.22V64.9Z"/><path class="cls-1" d="M201.2,64.9V63.45l2.73-.22v-21L201.2,42V40.57h7.46V42l-2.73.22v21l2.73.22V64.9Z"/><path class="cls-1" d="M219.88,65.25a14.35,14.35,0,0,1-4.17-.63,14.53,14.53,0,0,1-4-2V57.93h1.67l.25,3.79a12,12,0,0,0,3.06,1.38,11.61,11.61,0,0,0,3.2.45,8.6,8.6,0,0,0,3.35-.6,5.09,5.09,0,0,0,2.23-1.65,4,4,0,0,0,.79-2.45,4.29,4.29,0,0,0-.64-2.35,5.54,5.54,0,0,0-2.09-1.78,18.26,18.26,0,0,0-3.92-1.4,19.42,19.42,0,0,1-4.34-1.6,6.42,6.42,0,0,1-2.47-2.22,5.76,5.76,0,0,1-.79-3.08,5.47,5.47,0,0,1,1-3.22A6.46,6.46,0,0,1,215.68,41a9.76,9.76,0,0,1,4.07-.79,12.29,12.29,0,0,1,4.39.73,10.88,10.88,0,0,1,3.26,1.89v4.35h-1.65l-.25-3.44A7.82,7.82,0,0,0,223,42.41a10.29,10.29,0,0,0-3.26-.49,7.18,7.18,0,0,0-3.07.6,4.67,4.67,0,0,0-2,1.59,3.87,3.87,0,0,0-.7,2.28,4.18,4.18,0,0,0,.55,2.14,4.65,4.65,0,0,0,1.91,1.64,19,19,0,0,0,3.79,1.36,14.88,14.88,0,0,1,6,2.75,5.69,5.69,0,0,1,2,4.54,5.54,5.54,0,0,1-1.07,3.38,7,7,0,0,1-2.94,2.25A11.21,11.21,0,0,1,219.88,65.25Z"/><path class="cls-2" d="M59.41,49.58V47.37H55v2.17l0,0Z"/><rect class="cls-2" x="8.7" y="47.37" width="4.41" height="2.2"/><rect class="cls-2" x="8.7" y="42.96" width="4.41" height="2.2"/><path class="cls-2" d="M36.25,46.53l-2.2-2.19-2.19,2.19a9.94,9.94,0,0,1-3.37,2.22l-.09,0a13.76,13.76,0,0,1,5.71,6.7,13.81,13.81,0,0,1,5.67-6.67c-.06,0-.11-.06-.16-.08A9.84,9.84,0,0,1,36.25,46.53Z"/><rect class="cls-2" x="55" y="42.96" width="4.41" height="2.2"/><path class="cls-1" d="M24.13,46.49a7.77,7.77,0,0,1,2.72-1.83,5.57,5.57,0,0,0,1.89-1.25l5.31-5.31,5.32,5.31a5.72,5.72,0,0,0,1.89,1.25A7.73,7.73,0,0,1,44,46.49V36.35H24.13Z"/><rect class="cls-1" x="32.95" y="29.73" width="2.2" height="4.41"/><rect class="cls-1" x="43.98" y="18.71" width="8.82" height="2.2"/><polygon class="cls-1" points="34.05 18.71 30.75 23.12 37.36 23.12 34.05 18.71"/><rect class="cls-1" x="28.54" y="29.73" width="2.2" height="4.41"/><rect class="cls-1" x="31.85" y="25.32" width="4.41" height="2.2"/><path class="cls-1" d="M50.59,47.37V40.76h-2.2V38.55h2.2V31.94h-2.2V29.73h2.2V23.12H46.18v2.2h2.21v2.21H46.18v6.61h2.21v2.21H46.18V43h2.21v2.21H46.18v1.71c.23,0,.45,0,.68,0A13.94,13.94,0,0,1,50.59,47.37Z"/><rect class="cls-1" x="41.77" y="29.73" width="2.2" height="4.41"/><path class="cls-1" d="M28.49,48.75a9.94,9.94,0,0,0,3.37-2.22l2.19-2.19,2.2,2.19a9.84,9.84,0,0,0,3.37,2.22c.05,0,.1.06.16.08a13.45,13.45,0,0,1,2.29-1.11,5.45,5.45,0,0,0-1.63-1A7.74,7.74,0,0,1,37.81,45l-3.76-3.75L30.3,45a7.67,7.67,0,0,1-2.63,1.73,5.58,5.58,0,0,0-1.6,1A14.22,14.22,0,0,1,28.4,48.8Z"/><rect class="cls-1" x="24.13" y="29.73" width="2.2" height="4.41"/><rect class="cls-1" x="37.36" y="29.73" width="2.2" height="4.41"/><rect class="cls-1" x="52.79" y="36.35" width="11.02" height="2.2"/><path class="cls-1" d="M52.79,48.21A14.08,14.08,0,0,1,55,49.54V47.37h4.41v2.21H55.05A13.64,13.64,0,0,1,59.83,65h1.78V40.76H52.79ZM55,43h4.41v2.21H55Z"/><path class="cls-1" d="M15.31,48.27V40.76H6.49V65H8.4a13.57,13.57,0,0,1-.75-4.44A13.72,13.72,0,0,1,15.31,48.27ZM8.7,43h4.41v2.21H8.7Zm0,4.41h4.41v2.21H8.7Z"/><polygon class="cls-1" points="19.72 5.48 16.41 9.89 22.88 9.89 19.72 5.48"/><polygon class="cls-1" points="48.38 5.48 45.08 9.89 51.69 9.89 48.38 5.48"/><rect class="cls-1" x="46.18" y="12.1" width="4.41" height="4.41"/><rect class="cls-1" x="17.52" y="12.1" width="4.41" height="4.41"/><rect class="cls-1" x="15.31" y="18.71" width="8.82" height="2.2"/><path class="cls-1" d="M21.93,46.87v-1.7H19.72V43h2.21V36.35H19.72V34.14h2.21V27.53H19.72V25.32h2.21v-2.2H17.52v6.61h2.2v2.21h-2.2v6.61h2.2v2.21h-2.2v6.65a13.58,13.58,0,0,1,3.85-.56Z"/><rect class="cls-1" x="4.29" y="36.35" width="11.02" height="2.2"/><path class="cls-3" d="M9.51,89.46h218.1V70.63H47A10.08,10.08,0,1,1,54.77,67H52.18A8.23,8.23,0,1,0,47,68.8H227.61V67H57a11.89,11.89,0,1,0-21.9-6.4A11.8,11.8,0,0,0,37,67h-5.6a11.9,11.9,0,1,0-20,0H6.53V68.8h6.31a12.08,12.08,0,0,0,2.26,1.83H6.53V89.46h3ZM47,67a6.41,6.41,0,1,1,6.4-6.4A6.41,6.41,0,0,1,47,67Zm-35.68-6.4A10.07,10.07,0,1,1,29.15,67H26.57a8.23,8.23,0,1,0-5.16,1.83H38.46a12,12,0,0,0,2.25,1.83H21.41A10.08,10.08,0,0,1,11.34,60.57ZM21.41,67a6.41,6.41,0,1,1,6.4-6.4A6.41,6.41,0,0,1,21.41,67Z"/><path class="cls-4" d="M16,85.51v-.7l1.31-.1V74.61L16,74.51V73.8h4.53a4.76,4.76,0,0,1,2.63.74,5.16,5.16,0,0,1,1.78,2,6.59,6.59,0,0,1,.65,3v.19a6.61,6.61,0,0,1-.64,3,5,5,0,0,1-1.76,2,4.64,4.64,0,0,1-2.62.74Zm2.27-.8h2.26a3.58,3.58,0,0,0,2.14-.66,4.34,4.34,0,0,0,1.43-1.77,5.9,5.9,0,0,0,.52-2.53v-.21A5.9,5.9,0,0,0,24.13,77a4.28,4.28,0,0,0-1.43-1.75,3.64,3.64,0,0,0-2.14-.65H18.3Z"/><path class="cls-4" d="M27.58,85.51v-.7l1.32-.1V77.62l-1.32-.1v-.71h2.28v7.9l1.31.1v.7Zm1.2-11.16V73h1.08v1.39Z"/><path class="cls-4" d="M36.52,85.68a5.49,5.49,0,0,1-3.18-1V82.94h.79l.14,1.28a3.08,3.08,0,0,0,1,.52,4.34,4.34,0,0,0,1.22.16,2.51,2.51,0,0,0,1.66-.47,1.39,1.39,0,0,0,.07-2.21,4.12,4.12,0,0,0-1.82-.76,5.73,5.73,0,0,1-2.26-.9A1.92,1.92,0,0,1,33.48,79a2,2,0,0,1,.37-1.19,2.34,2.34,0,0,1,1-.84,3.74,3.74,0,0,1,1.6-.31,4.66,4.66,0,0,1,1.66.27,4,4,0,0,1,1.22.75l0,1.79h-.79l-.12-1.29a2.63,2.63,0,0,0-.84-.54,3.33,3.33,0,0,0-1.17-.19A2.3,2.3,0,0,0,35,77.9,1.36,1.36,0,0,0,34.45,79a1.34,1.34,0,0,0,.17.68,1.37,1.37,0,0,0,.63.53,6.49,6.49,0,0,0,1.37.44,5.61,5.61,0,0,1,2.37,1,2,2,0,0,1,.73,1.63A2.17,2.17,0,0,1,38.9,85,3.63,3.63,0,0,1,36.52,85.68Z"/><path class="cls-4" d="M45.6,85.68a3.43,3.43,0,0,1-1.92-.54,3.68,3.68,0,0,1-1.3-1.53,5.16,5.16,0,0,1-.47-2.28V81a5.32,5.32,0,0,1,.45-2.25,3.61,3.61,0,0,1,1.28-1.54,3.43,3.43,0,0,1,2-.55,4,4,0,0,1,1.8.38,3.89,3.89,0,0,1,1.32,1l0,2h-.81l-.12-1.63a2.93,2.93,0,0,0-2.19-.9,2.36,2.36,0,0,0-1.44.46,3,3,0,0,0-1,1.26A4.71,4.71,0,0,0,42.87,81v.34a4.64,4.64,0,0,0,.34,1.86,2.82,2.82,0,0,0,.95,1.25,2.44,2.44,0,0,0,1.45.44,2.53,2.53,0,0,0,1.62-.51A2.19,2.19,0,0,0,48,82.86h.86l0,0a3.09,3.09,0,0,1-.49,1.45,2.82,2.82,0,0,1-1.13,1A3.65,3.65,0,0,1,45.6,85.68Z"/><path class="cls-4" d="M55,85.68a3.54,3.54,0,0,1-3.38-2.11,5.15,5.15,0,0,1-.48-2.27V81a5.15,5.15,0,0,1,.48-2.27A3.8,3.8,0,0,1,57,77.21a3.78,3.78,0,0,1,1.35,1.55A5.15,5.15,0,0,1,58.85,81v.27a5.16,5.16,0,0,1-.48,2.28A3.78,3.78,0,0,1,57,85.13,3.61,3.61,0,0,1,55,85.68Zm0-.8a2.52,2.52,0,0,0,1.54-.48,3,3,0,0,0,1-1.28,4.48,4.48,0,0,0,.35-1.82V81a4.43,4.43,0,0,0-.35-1.81,3,3,0,0,0-1-1.28,2.74,2.74,0,0,0-3.1,0,3,3,0,0,0-1,1.28A4.78,4.78,0,0,0,52.11,81v.27a4.8,4.8,0,0,0,.34,1.82,3,3,0,0,0,1,1.28A2.59,2.59,0,0,0,55,84.88Z"/><path class="cls-4" d="M64.3,85.51l-3.17-7.94-.92,0v-.71h3.06v.71l-1.14.07,2.26,5.74.32,1h.05l.34-1,2.18-5.74-1.16-.07v-.71h3.07v.71l-.94,0-3.08,7.94Z"/><path class="cls-4" d="M74.29,85.68A3.54,3.54,0,0,1,71,83.63a4.73,4.73,0,0,1-.49-2.21V81A4.85,4.85,0,0,1,71,78.75a3.93,3.93,0,0,1,1.3-1.54,3.24,3.24,0,0,1,1.84-.56,3.41,3.41,0,0,1,1.83.46,2.93,2.93,0,0,1,1.17,1.29,4.42,4.42,0,0,1,.41,2v.82h-6v.35a4.06,4.06,0,0,0,.35,1.72,2.89,2.89,0,0,0,1,1.19,2.57,2.57,0,0,0,1.47.44,3.54,3.54,0,0,0,2.55-1l.41.66a4.51,4.51,0,0,1-1.23.8A4.31,4.31,0,0,1,74.29,85.68Zm-2.72-5.31h5v-.24a3.17,3.17,0,0,0-.29-1.37,2.35,2.35,0,0,0-.84-1,2.39,2.39,0,0,0-1.31-.35,2.09,2.09,0,0,0-1.24.38,2.66,2.66,0,0,0-.91,1,3.83,3.83,0,0,0-.43,1.46Z"/><path class="cls-4" d="M79.52,85.51v-.7l1.31-.1V77.62l-1.31-.1v-.71h2.16l.1,1.33v.23a3.21,3.21,0,0,1,1-1.27,2.57,2.57,0,0,1,1.52-.45l.47,0a2.55,2.55,0,0,1,.36.08l-.13.89-.89-.06a2,2,0,0,0-1.51.53,2.94,2.94,0,0,0-.81,1.47v5.12l1.31.1v.7Z"/><path class="cls-4" d="M94.63,85.51v-.7l1.31-.1V81.15l-3.89-6.58-1-.06V73.8h3.27v.71l-1.23.06,3.1,5.4.19.36h0l.2-.35,3.15-5.4-1.25-.06V73.8h3.24v.71l-1,.06L96.91,81.1v3.61l1.31.1v.7Z"/><path class="cls-4" d="M106.35,85.68a3.66,3.66,0,0,1-2-.55A3.81,3.81,0,0,1,103,83.57a5.15,5.15,0,0,1-.47-2.27V81a5.15,5.15,0,0,1,.47-2.27,3.78,3.78,0,0,1,1.35-1.55,3.94,3.94,0,0,1,4,0,3.78,3.78,0,0,1,1.35,1.55,5.15,5.15,0,0,1,.48,2.27v.27a5.16,5.16,0,0,1-.48,2.28,3.78,3.78,0,0,1-1.35,1.55A3.63,3.63,0,0,1,106.35,85.68Zm0-.8a2.47,2.47,0,0,0,1.53-.48,3,3,0,0,0,1-1.28,4.65,4.65,0,0,0,.35-1.82V81a4.6,4.6,0,0,0-.35-1.81,3,3,0,0,0-1-1.28,2.74,2.74,0,0,0-3.1,0,3,3,0,0,0-1,1.28,4.78,4.78,0,0,0-.34,1.81v.27a4.8,4.8,0,0,0,.34,1.82,3,3,0,0,0,1,1.28A2.57,2.57,0,0,0,106.35,84.88Z"/><path class="cls-4" d="M115.77,85.68a2.61,2.61,0,0,1-2.13-.93,4.59,4.59,0,0,1-.76-2.9V77.62l-1.07-.1v-.71h2v5.06a3.89,3.89,0,0,0,.52,2.29,1.8,1.8,0,0,0,1.52.69,2.69,2.69,0,0,0,1.74-.51,2.63,2.63,0,0,0,.86-1.4V77.62l-1.24-.1v-.71h2.22v7.9l1.16.1v.7h-2l-.08-1.43a3,3,0,0,1-1.1,1.19A3.19,3.19,0,0,1,115.77,85.68Z"/><path class="cls-4" d="M122.4,85.51v-.7l1.31-.1V77.62l-1.31-.1v-.71h2.15l.11,1.33v.23a3.12,3.12,0,0,1,1-1.27,2.57,2.57,0,0,1,1.52-.45l.47,0a2.07,2.07,0,0,1,.35.08l-.12.89-.89-.06a2,2,0,0,0-1.51.53,2.94,2.94,0,0,0-.81,1.47v5.12l1.31.1v.7Z"/><path class="cls-4" d="M134,85.51v-.7l.87,0,4.15-11h.92l4.13,11,.86,0v.7H142v-.7l1-.07-1-2.65h-5.26l-1,2.65,1,.07v.7Zm3.16-4.26h4.62l-2.11-5.75-.16-.48h-.05l-.17.48Z"/><path class="cls-4" d="M150,85.68a3,3,0,0,1-1.79-.53,3.26,3.26,0,0,1-1.14-1.49,5.94,5.94,0,0,1-.39-2.26v-.17a6.86,6.86,0,0,1,.39-2.42,3.56,3.56,0,0,1,1.15-1.6,2.94,2.94,0,0,1,1.8-.56,3,3,0,0,1,2.68,1.46V73.78l-1.31-.11V73h2.28V84.71l1.31.1v.7h-2.17l-.08-1.23a2.89,2.89,0,0,1-1.11,1A3.34,3.34,0,0,1,150,85.68Zm.18-.83a2.55,2.55,0,0,0,2.52-1.58V79.21a3.12,3.12,0,0,0-.91-1.25,2.52,2.52,0,0,0-1.6-.48,2.11,2.11,0,0,0-1.41.47,3,3,0,0,0-.84,1.32,5.86,5.86,0,0,0-.29,2v.17a4.48,4.48,0,0,0,.63,2.52A2.14,2.14,0,0,0,150.18,84.85Z"/><path class="cls-4" d="M160.58,85.51l-3.16-7.94-.92,0v-.71h3.06v.71l-1.14.07,2.25,5.74.32,1h0l.35-1,2.18-5.74-1.16-.07v-.71h3.07v.71l-.95,0-3.08,7.94Z"/><path class="cls-4" d="M170.58,85.68a3.59,3.59,0,0,1-2-.54,3.72,3.72,0,0,1-1.34-1.51,4.86,4.86,0,0,1-.48-2.21V81a5,5,0,0,1,.48-2.23,4,4,0,0,1,1.31-1.54,3.22,3.22,0,0,1,1.84-.56,3.46,3.46,0,0,1,1.83.46,3,3,0,0,1,1.17,1.29,4.42,4.42,0,0,1,.4,2v.82h-6l0,.35a4.22,4.22,0,0,0,.36,1.72,2.82,2.82,0,0,0,1,1.19,2.53,2.53,0,0,0,1.47.44,3.74,3.74,0,0,0,1.44-.26,3.59,3.59,0,0,0,1.1-.71l.41.66a4.3,4.3,0,0,1-1.22.8A4.35,4.35,0,0,1,170.58,85.68Zm-2.73-5.31h5v-.24a3,3,0,0,0-.3-1.37,2.26,2.26,0,0,0-.83-1,2.42,2.42,0,0,0-1.31-.35,2.12,2.12,0,0,0-1.25.38,2.64,2.64,0,0,0-.9,1,3.66,3.66,0,0,0-.43,1.46Z"/><path class="cls-4" d="M175.81,85.51v-.7l1.32-.1V77.62l-1.32-.1v-.71H178l.08,1.56a3.16,3.16,0,0,1,1.12-1.27,3.11,3.11,0,0,1,1.69-.45,2.69,2.69,0,0,1,2.16.86,4.14,4.14,0,0,1,.74,2.71v4.49l1.31.1v.7h-3.59v-.7l1.32-.1V80.23a3.18,3.18,0,0,0-.56-2.13,2,2,0,0,0-1.58-.62,2.38,2.38,0,0,0-1.71.6,3.17,3.17,0,0,0-.87,1.58v5l1.31.1v.7Z"/><path class="cls-4" d="M190,85.67a1.82,1.82,0,0,1-1.43-.57,2.76,2.76,0,0,1-.5-1.83V77.59h-1.51v-.78h1.51V74.57h1v2.24h2v.78h-2v5.68a2,2,0,0,0,.31,1.25,1,1,0,0,0,.83.38,4.89,4.89,0,0,0,.54,0l.54-.08.15.69a3.82,3.82,0,0,1-.66.14A6.27,6.27,0,0,1,190,85.67Z"/><path class="cls-4" d="M196.88,85.68a2.57,2.57,0,0,1-2.12-.93,4.53,4.53,0,0,1-.76-2.9V77.62l-1.08-.1v-.71h2v5.06a4,4,0,0,0,.52,2.29,1.8,1.8,0,0,0,1.52.69,2.69,2.69,0,0,0,1.74-.51,2.63,2.63,0,0,0,.86-1.4V77.62l-1.23-.1v-.71h2.21v7.9l1.16.1v.7h-2l-.08-1.43a3.07,3.07,0,0,1-1.09,1.19A3.25,3.25,0,0,1,196.88,85.68Z"/><path class="cls-4" d="M203.51,85.51v-.7l1.31-.1V77.62l-1.31-.1v-.71h2.16l.1,1.33v.23a3.21,3.21,0,0,1,1-1.27,2.58,2.58,0,0,1,1.53-.45l.46,0a2.55,2.55,0,0,1,.36.08l-.12.89-.9-.06a2,2,0,0,0-1.51.53,2.94,2.94,0,0,0-.81,1.47v5.12l1.31.1v.7Z"/><path class="cls-4" d="M214.47,85.68a3.62,3.62,0,0,1-2-.54,3.72,3.72,0,0,1-1.34-1.51,4.86,4.86,0,0,1-.48-2.21V81a5,5,0,0,1,.48-2.23,4,4,0,0,1,1.31-1.54,3.24,3.24,0,0,1,1.84-.56,3.43,3.43,0,0,1,1.83.46,2.93,2.93,0,0,1,1.17,1.29,4.42,4.42,0,0,1,.4,2v.82h-6l0,.35a4.22,4.22,0,0,0,.36,1.72,2.89,2.89,0,0,0,1,1.19,2.53,2.53,0,0,0,1.47.44,3.83,3.83,0,0,0,1.45-.26,3.66,3.66,0,0,0,1.09-.71l.41.66a4,4,0,0,1-2.95,1.11Zm-2.73-5.31h5v-.24a3.17,3.17,0,0,0-.29-1.37,2.35,2.35,0,0,0-.84-1,2.39,2.39,0,0,0-1.31-.35,2.12,2.12,0,0,0-1.25.38,2.64,2.64,0,0,0-.9,1,3.66,3.66,0,0,0-.43,1.46Z"/></svg>