<svg id="Layer_1" data-name="Layer 1" xmlns="http://www.w3.org/2000/svg" viewBox="0 0 236.54 78.61"><defs><style>.cls-1{fill:#00427e;}.cls-2{fill:none;}.cls-3{fill:#29abc7;}</style></defs><path class="cls-1" d="M63.56,64.9V63.45l1.79-.12L74,40.57H75.9l8.57,22.76,1.79.12V64.9h-6V63.45l2.14-.15-2-5.5H69.46l-2,5.5,2.14.15V64.9ZM70.11,56h9.61L75.33,44.1l-.34-1h-.1l-.35,1Z"/><path class="cls-1" d="M90.66,64.9V63.45l2.72-.22v-21H86.55l-.22,3.71H84.69V40.57h19.37v5.35h-1.62l-.24-3.71H95.38v21l2.73.22V64.9Z"/><path class="cls-1" d="M107.25,64.9V63.45l2.73-.22v-21L107.25,42V40.57h7.46V42l-2.73.22v21h10.21l.19-3.93H124V64.9Z"/><path class="cls-1" d="M127,64.9V63.45l1.78-.12,8.64-22.76h1.91l8.57,22.76,1.79.12V64.9h-6V63.45l2.14-.15-2-5.5H132.88l-2,5.5,2.13.15V64.9ZM133.54,56h9.6L138.75,44.1l-.33-1h-.1l-.36,1Z"/><path class="cls-1" d="M152.91,64.9V63.45l2.72-.22v-21L152.91,42V40.57h4.75l13.9,20.92.1,0V42.26L168.82,42V40.57h7.45V42l-2.72.22V64.9h-1.88l-14-21-.1,0v19.3l2.84.22V64.9Z"/><path class="cls-1" d="M185,64.9V63.45l2.72-.22v-21h-6.83l-.22,3.71H179V40.57h19.37v5.35h-1.62l-.24-3.71H189.7v21l2.73.22V64.9Z"/><path class="cls-1" d="M201.17,64.9V63.45l2.72-.22v-21L201.17,42V40.57h7.45V42l-2.72.22v21l2.72.22V64.9Z"/><path class="cls-1" d="M219.85,65.25a14.19,14.19,0,0,1-8.19-2.61V57.93h1.67l.25,3.79a12,12,0,0,0,3.06,1.38,11.73,11.73,0,0,0,3.21.45,8.6,8.6,0,0,0,3.35-.6,5.11,5.11,0,0,0,2.22-1.65,4,4,0,0,0,.79-2.45,4.29,4.29,0,0,0-.64-2.35,5.46,5.46,0,0,0-2.09-1.78,18.06,18.06,0,0,0-3.92-1.4,19.32,19.32,0,0,1-4.33-1.6,6.35,6.35,0,0,1-2.47-2.22,5.77,5.77,0,0,1-.8-3.08,5.47,5.47,0,0,1,1-3.22A6.49,6.49,0,0,1,215.65,41a9.71,9.71,0,0,1,4.06-.79,12.29,12.29,0,0,1,4.39.73,10.81,10.81,0,0,1,3.27,1.89v4.35h-1.66l-.25-3.44A7.82,7.82,0,0,0,223,42.41a10.2,10.2,0,0,0-3.26-.49,7.22,7.22,0,0,0-3.07.6,4.67,4.67,0,0,0-2,1.59,3.93,3.93,0,0,0-.69,2.28,4.08,4.08,0,0,0,.55,2.14,4.62,4.62,0,0,0,1.9,1.64,19.13,19.13,0,0,0,3.8,1.36,15,15,0,0,1,6,2.75,5.68,5.68,0,0,1,2,4.54,5.53,5.53,0,0,1-1.06,3.38,7,7,0,0,1-2.95,2.25A11.16,11.16,0,0,1,219.85,65.25Z"/><path class="cls-2" d="M59.37,49.58V47.37H55v2.17l0,0Z"/><rect class="cls-2" x="8.66" y="47.37" width="4.41" height="2.2"/><rect class="cls-2" x="8.66" y="42.96" width="4.41" height="2.2"/><path class="cls-2" d="M39.74,48.83l-.16-.08a9.8,9.8,0,0,1-3.36-2.22L34,44.34l-2.2,2.19a9.84,9.84,0,0,1-3.37,2.22l-.09,0"/><rect class="cls-2" x="54.96" y="42.96" width="4.41" height="2.2"/><path class="cls-1" d="M24.1,46.49a7.73,7.73,0,0,1,2.71-1.83,5.47,5.47,0,0,0,1.89-1.25L34,38.1l5.31,5.31a5.82,5.82,0,0,0,1.89,1.25,7.77,7.77,0,0,1,2.72,1.83V36.35H24.1Z"/><rect class="cls-1" x="32.92" y="29.73" width="2.2" height="4.41"/><rect class="cls-1" x="43.94" y="18.71" width="8.82" height="2.2"/><polygon class="cls-1" points="34.02 18.71 30.71 23.12 37.33 23.12 34.02 18.71"/><rect class="cls-1" x="28.51" y="29.73" width="2.2" height="4.41"/><rect class="cls-1" x="31.81" y="25.32" width="4.41" height="2.2"/><path class="cls-1" d="M50.55,47.37V40.76h-2.2V38.55h2.2V31.94h-2.2V29.73h2.2V23.12H46.14v2.2h2.21v2.21H46.14v6.61h2.21v2.21H46.14V43h2.21v2.21H46.14v1.71c.23,0,.45,0,.68,0A13.83,13.83,0,0,1,50.55,47.37Z"/><rect class="cls-1" x="41.74" y="29.73" width="2.2" height="4.41"/><path class="cls-1" d="M28.45,48.75a9.84,9.84,0,0,0,3.37-2.22L34,44.34l2.2,2.19a9.8,9.8,0,0,0,3.36,2.22l.16.08A13.55,13.55,0,0,1,42,47.72a5.5,5.5,0,0,0-1.64-1A7.84,7.84,0,0,1,37.77,45L34,41.22,30.26,45a7.57,7.57,0,0,1-2.63,1.73,5.58,5.58,0,0,0-1.6,1,13.48,13.48,0,0,1,2.33,1.11Z"/><rect class="cls-1" x="24.1" y="29.73" width="2.2" height="4.41"/><rect class="cls-1" x="37.33" y="29.73" width="2.2" height="4.41"/><rect class="cls-1" x="52.76" y="36.35" width="11.02" height="2.2"/><path class="cls-1" d="M52.76,48.21A13.55,13.55,0,0,1,55,49.54V47.37h4.41v2.21H55A13.64,13.64,0,0,1,59.79,65h1.79V40.76H52.76ZM55,43h4.41v2.21H55Z"/><path class="cls-1" d="M15.28,48.27V40.76H6.46V65H8.37a13.57,13.57,0,0,1-.75-4.44A13.7,13.7,0,0,1,15.28,48.27ZM8.66,43h4.41v2.21H8.66Zm0,4.41h4.41v2.21H8.66Z"/><polygon class="cls-1" points="19.69 5.48 16.38 9.89 22.84 9.89 19.69 5.48"/><polygon class="cls-1" points="48.35 5.48 45.04 9.89 51.66 9.89 48.35 5.48"/><rect class="cls-1" x="46.14" y="12.1" width="4.41" height="4.41"/><rect class="cls-1" x="17.48" y="12.1" width="4.41" height="4.41"/><rect class="cls-1" x="15.28" y="18.71" width="8.82" height="2.2"/><path class="cls-1" d="M21.89,46.87v-1.7h-2.2V43h2.2V36.35h-2.2V34.14h2.2V27.53h-2.2V25.32h2.2v-2.2H17.48v6.61h2.21v2.21H17.48v6.61h2.21v2.21H17.48v6.65a13.7,13.7,0,0,1,3.86-.56Z"/><rect class="cls-1" x="4.25" y="36.35" width="11.02" height="2.2"/><path class="cls-3" d="M9.48,72.46h218.1V70.63H47A10.08,10.08,0,1,1,54.73,67H52.14A8.22,8.22,0,1,0,47,68.8h180.6V67H57a11.9,11.9,0,1,0-20,0h-5.6a11.9,11.9,0,1,0-20,0H6.49V68.8h6.32a12,12,0,0,0,2.25,1.83H6.49v1.83h3ZM47,67a6.41,6.41,0,1,1,6.4-6.4A6.41,6.41,0,0,1,47,67Zm-35.67-6.4A10.06,10.06,0,1,1,29.12,67H26.53a8.22,8.22,0,1,0-5.16,1.83H38.42a12,12,0,0,0,2.25,1.83H21.37A10.07,10.07,0,0,1,11.31,60.57ZM21.37,67a6.41,6.41,0,1,1,6.4-6.4A6.41,6.41,0,0,1,21.37,67Z"/></svg>